<?xml version="1.0" encoding="UTF-8"?>
<svg id="Layer_2" data-name="Layer 2" xmlns="http://www.w3.org/2000/svg" viewBox="0 0 100 100">
  <path d="m74.94,64.8l-11-25.29v-11.25h5.15s3.58-.09,3.59-4.6c.01-4.15-3.57-4.1-3.57-4.1l-37.95-.1s-3.71.11-3.71,4.48,3.73,4.32,3.73,4.32h5.15v11.57l-11,24.97s-3.01,6.35-3.01,9.28c0,11.54,9.77,11.54,9.77,11.54h34.32s11.54,0,11.54-10.94c0-3.09-3.01-9.88-3.01-9.88Zm-39.85-.5l10.03-24.79v-11.25h10.03v11.25l11.25,24.79h-31.31Z" style="fill: #fff; stroke-width: 0px;"/>
</svg>