<?xml version="1.0" encoding="UTF-8"?>
<svg id="Layer_2" data-name="Layer 2" xmlns="http://www.w3.org/2000/svg" viewBox="0 0 100 100">
  <path d="m67.57,15.73h-31.14c-5.39,0-9.76,4.37-9.76,9.76v49.1c0,5.39,4.37,9.75,9.76,9.75h31.14c5.38,0,9.75-4.36,9.75-9.75V25.49c0-5.39-4.37-9.76-9.75-9.76Zm-23.79,58.72h-8.8v-8.8h8.8v8.8Zm0-12.64h-8.8v-8.8h8.8v8.8Zm0-12.64h-8.8v-8.8h8.8v8.8Zm12.92,25.28h-8.8v-8.8h8.8v8.8Zm0-12.64h-8.8v-8.8h8.8v8.8Zm0-12.64h-8.8v-8.8h8.8v8.8Zm12.92,25.28h-8.8v-21.44h8.8v21.44Zm0-25.28h-8.8v-8.8h8.8v8.8Zm0-16.62c0,1.09-.89,1.98-1.98,1.98h-30.68c-1.1,0-1.98-.89-1.98-1.98v-7.13c0-1.1.88-1.98,1.98-1.98h30.68c1.09,0,1.98.88,1.98,1.98v7.13Z" style="fill: #fff; stroke-width: 0px;"/>
</svg>