<?xml version="1.0" encoding="UTF-8"?>
<svg id="Layer_2" data-name="Layer 2" xmlns="http://www.w3.org/2000/svg" viewBox="0 0 100 100">
  <path d="m57.05,56.24c.35.07.72.14,1.09.22.33-.34.65-.69.94-1.06-1.14.07-1.74.41-2.03.84Zm-15.86-39.61c-12.99,0-23.53,10.54-23.53,23.53,0,9.83,6.04,18.27,14.61,21.77,0-.15,0-.31,0-.47,0-4.12.93-8.03,2.6-11.52h-1.81v-4.29s2.99-.1,2.99-3.18v-.81h-2.99v-4.06h2.99v-1.98c0-3.61,1.32-6.75,7.14-6.75s7.1,2.75,7.11,6.68v.04h-5c0-1.62-.49-2.34-2.08-2.34-1.49,0-2.01.65-2.01,2.41v1.95h5.66c3.66-1.88,7.81-2.94,12.21-2.94,1.74,0,3.44.17,5.08.49-2.29-10.58-11.71-18.51-22.97-18.51Z" style="fill: #fff; stroke-width: 0px;"/>
  <path d="m67.36,39.27c-.88-.35-1.79-.64-2.72-.88-1.86-.47-3.81-.73-5.82-.73s-3.79.23-5.58.67c-.04,0-.09.02-.14.04-1.25.31-2.48.73-3.64,1.23-.55.24-1.09.5-1.62.78-.73.39-1.44.81-2.11,1.27-1.69,1.13-3.22,2.47-4.56,3.99-1.16,1.31-2.17,2.75-3.01,4.29-.49.9-.92,1.82-1.29,2.79-1.01,2.62-1.57,5.47-1.57,8.46,0,.6.02,1.18.06,1.77.05.65.12,1.29.23,1.92,1.77,11.24,11.5,19.84,23.23,19.84,12.99,0,23.52-10.54,23.52-23.53,0-9.98-6.21-18.5-14.98-21.91Zm-5.44,31.22v3.62h-4.28v-3.62c-3.67-.48-5.36-2.4-5.7-5.35-.05-.41-.08-.84-.08-1.29h4.63c.09,1.87.81,3.1,3.48,3.1,2.39,0,2.96-.98,2.96-1.84,0-1.94-2.82-2.09-5.56-2.72-1.6-.36-3.17-.88-4.15-2.02-.34-.38-.6-.83-.78-1.36-.18-.5-.27-1.07-.27-1.73,0-2.44,1.3-4.86,5.47-5.44v-3.05h4.28v3.08c1.46.23,2.55.7,3.35,1.37,1.4,1.15,1.92,2.91,1.97,4.96h-4.6c0-.23-.04-.46-.07-.68-.2-1.23-.86-2.14-3.07-2.14-.15,0-.29,0-.43,0-1.14.07-1.74.41-2.03.84-.18.25-.24.52-.24.79,0,1.46,2.01,1.76,4.27,2.22,2.96.6,6.37,1.48,6.37,5.61,0,2.3-1.07,4.98-5.53,5.63Z" style="fill: #fff; stroke-width: 0px;"/>
</svg>