<?xml version="1.0" encoding="UTF-8"?>
<svg id="Layer_2" data-name="Layer 2" xmlns="http://www.w3.org/2000/svg" viewBox="0 0 100 100">
  <path d="m24.5,20.3s-2.23.06-2.16,2.88c.07,2.56,2.07,2.56,2.07,2.56h3.98s.74,4.88,5.08,12.25c2.27,3.85,5.79,6.41,7.89,7.68,1.08.66,2.74,1.82,2.74,3.08l-.37,5.66c-.3,1.01-1.08,2.48-1.88,3.26-2.06,2.02-6.15,6.17-8.19,9.22-2.65,3.95-5.25,10.43-5.25,10.43h-3.94s-2.22.13-2.22,2.75c0,2.78,2.25,2.78,2.25,2.78h50.99s2.25,0,2.25-2.78-2.25-2.78-2.25-2.78h-3.97s-2.31-5.31-5.24-10.35c-1.96-3.37-5.76-7.14-7.9-9.13-1.01-.93-1.85-2.15-2.16-3.65l-.41-4.79c0-1.55,1.89-2.95,3.3-3.59,2.16-.98,5.44-3.09,8.11-7.5,3.42-5.66,4.3-12.59,4.3-12.59h3.97s2.27-.02,2.19-2.71-2.25-2.78-2.25-2.78l-50.92.1Z" style="fill: none; stroke: #fff; stroke-miterlimit: 10; stroke-width: 3px;"/>
  <polygon points="32.68 36.08 68.27 36.08 55.51 50.03 43.08 48.29 32.68 36.08" style="fill: #fff; stroke: #fff; stroke-miterlimit: 10; stroke-width: .25px;"/>
  <rect x="45.57" y="44.57" width="8.83" height="37.71" style="fill: #fff; stroke-width: 0px;"/>
  <path d="m44.5,67.52l10.91-.17c8.3-.14,14.96,5.82,16.11,9.94h0l5.13.4,1.03,3.13-3.82,2.03H24.77l-2.52-2.78,4.23-2.8,4.2-3.04h0c.5-1.63,7.67-6.66,13.82-6.71Z" style="fill: #fff; stroke-width: 0px;"/>
  <line x1="23.83" y1="23.55" x2="76.26" y2="23.35" style="fill: none; stroke: #fff; stroke-miterlimit: 10; stroke-width: 7px;"/>
</svg>