<?xml version="1.0" encoding="UTF-8"?>
<svg id="Layer_2" data-name="Layer 2" xmlns="http://www.w3.org/2000/svg" viewBox="0 0 100 100">
  <path d="m33.75,62.5l6.03,12.5h24.71l5.29-12.5s4.22-5.48,7.06-10.47c2.86-5.02,2.91-11.39,2.91-11.39,0-15.32-12.42-27.75-27.75-27.75s-27.75,12.42-27.75,27.75c0,0,.03,4.89,2.64,11.39,2.66,6.61,6.86,10.47,6.86,10.47" style="fill: #fff; stroke-width: 0px;"/>
  <path d="m39.64,79.49s-1.42-.01-1.37,1.51,1.37,1.51,1.37,1.51h25.02s1.37.05,1.37-1.51-1.39-1.53-1.39-1.53h-25Z" style="fill: #fff; stroke-width: 0px;"/>
  <polyline points="41.97 82.52 44.2 88.45 60.18 88.45 62.41 82.52" style="fill: #fff; stroke-width: 0px;"/>
</svg>