<?xml version="1.0" encoding="UTF-8"?>
<svg id="Layer_2" data-name="Layer 2" xmlns="http://www.w3.org/2000/svg" viewBox="0 0 100 100">
  <path d="m69.39,22.18h-35.53c-5.46,0-9.91,4.36-10.05,9.79-.04-.01-.08-.01-.12-.01h-2.25c-.83,0-1.5.67-1.5,1.5v7.43c0,.83.67,1.51,1.5,1.51h2.25s.08,0,.12-.01v3.41s-.07-.01-.11-.01h-2.26c-.83,0-1.5.67-1.5,1.5v2.63c0,.83.67,1.5,1.5,1.5h2.26s.07,0,.11-.01v2.85s-.08-.01-.12-.01h-2.25c-.83,0-1.5.67-1.5,1.5v2.63c0,.83.67,1.5,1.5,1.5h2.25s.08,0,.12-.01v7.89c0,5.55,4.5,10.05,10.05,10.05h35.53c5.55,0,10.05-4.5,10.05-10.05v-35.53c0-5.55-4.5-10.05-10.05-10.05Zm-5.38,10.78c0-.55.45-1,1-1h1.57c.55,0,1,.45,1,1v25.98c0,.55-.45,1-1,1h-1.57c-.55,0-1-.45-1-1v-25.98Zm-35.3,16.57c0-.83.67-1.5,1.5-1.5h3.65v-4.85h-3.65c-.83,0-1.5-.67-1.5-1.5v-.5c0-.83.67-1.5,1.5-1.5h3.65c.06-1.45,1.26-2.6,2.71-2.6v-3.62c0-.82.67-1.5,1.5-1.5h.5c.83,0,1.5.68,1.5,1.5v3.62h4.85v-3.62c0-.82.67-1.5,1.5-1.5h.5c.83,0,1.5.68,1.5,1.5v3.62c1.45.06,2.6,1.25,2.6,2.71h3.8c.83,0,1.5.67,1.5,1.5v.5c0,.83-.67,1.5-1.5,1.5h-3.66c-.05,0-.1,0-.14-.01v4.87s.09-.01.14-.01h3.66c.83,0,1.5.67,1.5,1.5v.5c0,.83-.67,1.5-1.5,1.5h-3.66c-.05,0-.1,0-.14,0-.05,1.44-1.24,2.6-2.71,2.6v3.62c0,.83-.67,1.5-1.5,1.5h-.5c-.83,0-1.5-.67-1.5-1.5v-3.62h-4.74v3.62c0,.83-.67,1.5-1.5,1.5h-.5c-.83,0-1.5-.67-1.5-1.5v-3.62c-1.49,0-2.71-1.21-2.71-2.7h-3.65c-.83,0-1.5-.67-1.5-1.5v-.5Zm-.18,15.62c0-.55.44-1,1-1h25.97c.56,0,1,.45,1,1v.76c0,.55-.44,1-1,1h-25.97c-.56,0-1-.45-1-1v-.76Zm28.16,4.42c0,.56-.45,1-1,1h-25.98c-.55,0-1-.44-1-1v-.76c0-.55.45-1,1-1h25.98c.55,0,1,.45,1,1v.76Zm15.68-1.06c0,1.14-.93,2.06-2.06,2.06h-9.13c-1.14,0-2.06-.92-2.06-2.06v-1.47c0-1.14.92-2.06,2.06-2.06h9.13c1.13,0,2.06.92,2.06,2.06v1.47Zm0-9.57c0,.55-.45,1-1,1h-1.57c-.56,0-1-.45-1-1v-25.98c0-.55.44-1,1-1h1.57c.55,0,1,.45,1,1v25.98Z" style="fill: #fff; stroke-width: 0px;"/>
  <rect x="36.57" y="39.79" width="11.74" height="11.74" style="fill: #fff; stroke-width: 0px;"/>
</svg>