<?xml version="1.0" encoding="UTF-8"?>
<svg id="Layer_2" data-name="Layer 2" xmlns="http://www.w3.org/2000/svg" viewBox="0 0 100 100">
  <path d="m41.89,66.13c-6.16-3.32-13.54-1.79-17.02,1.69-3.83,3.82-4.72,7.91-2.66,9.98,3.48,3.48,10.38,2.08,14.68-.32,2.6-1.45,4.95-3.91,4.99-5.42l.02-.09v-5.83Z" style="fill: #fff; stroke-width: 0px;"/>
  <polyline points="41.72 35.64 41.89 71.96 36 71.96 36 29.95 36 27.44 72.98 21.82 76.67 21.18 76.7 24.44 76.87 66.44 70.98 66.44 70.98 30.13" style="fill: #fff; stroke-width: 0px;"/>
  <path d="m76.87,60.61c-6.16-3.32-13.54-1.79-17.02,1.69-3.83,3.82-4.72,7.91-2.66,9.98,3.48,3.48,10.38,2.08,14.68-.32,2.6-1.45,4.95-3.91,4.99-5.42l.02-.09v-5.83Z" style="fill: #fff; stroke-width: 0px;"/>
</svg>